<?xml version="1.0" standalone="no"?>
<!DOCTYPE svg PUBLIC "-//W3C//DTD SVG 20010904//EN"
 "http://www.w3.org/TR/2001/REC-SVG-20010904/DTD/svg10.dtd">
<svg version="1.0" xmlns="http://www.w3.org/2000/svg"
 width="500.000000pt" height="500.000000pt" viewBox="0 0 500.000000 500.000000"
 preserveAspectRatio="xMidYMid meet">

<g transform="translate(0.000000,500.000000) scale(0.100000,-0.100000)"
fill="#000000" stroke="none">
<path d="M2320 3869 c-91 -16 -245 -73 -333 -125 -154 -92 -321 -280 -397
-447 -68 -150 -99 -343 -81 -504 47 -438 350 -780 776 -879 116 -27 329 -25
447 4 417 103 712 444 759 875 26 234 -48 498 -191 689 -71 93 -193 205 -288
262 -90 54 -242 109 -342 125 -77 13 -273 12 -350 0z m-262 -301 c6 -6 19 -55
28 -110 10 -54 20 -98 24 -98 4 0 15 45 25 100 18 99 35 134 56 113 6 -6 13
-85 16 -181 6 -175 -1 -224 -33 -236 -11 -4 -14 -38 -14 -172 0 -144 2 -170
17 -186 15 -17 19 -56 26 -286 l9 -266 -22 -18 c-16 -13 -40 -18 -85 -18 -100
0 -98 -9 -90 292 6 236 15 308 36 308 5 0 9 74 9 165 l0 164 -27 27 -26 26 6
185 c8 208 11 225 45 191z m632 -8 c23 -23 24 -35 7 -274 -12 -157 -14 -169
-36 -187 -14 -11 -39 -19 -62 -19 l-39 0 0 -130 c0 -114 2 -132 19 -149 17
-17 19 -43 26 -257 11 -325 12 -304 -10 -320 -11 -8 -44 -14 -81 -14 -101 0
-98 -10 -90 279 8 284 11 312 37 318 17 5 19 17 19 139 l0 134 -44 0 c-28 0
-52 7 -67 19 -21 17 -23 30 -35 197 -17 242 -17 241 6 264 18 18 33 20 175 20
142 0 157 -2 175 -20z m280 -371 c0 -325 2 -383 15 -395 9 -10 15 -35 15 -67
0 -29 5 -146 10 -262 11 -259 12 -255 -89 -255 -108 0 -105 -11 -96 297 5 189
11 266 21 287 8 16 14 54 14 85 0 54 -2 57 -30 68 -28 11 -30 14 -30 66 0 30
5 101 11 158 25 246 78 399 139 399 20 0 20 -9 20 -381z"/>
<path d="M2432 3481 c-9 -6 -12 -46 -10 -152 3 -128 5 -144 21 -147 16 -3 17
9 17 147 0 82 -4 152 -8 155 -4 2 -13 1 -20 -3z"/>
<path d="M2507 3483 c-4 -3 -7 -73 -7 -155 0 -137 1 -149 18 -146 15 3 17 19
20 144 2 110 -1 144 -11 152 -8 7 -17 9 -20 5z"/>
<path d="M2575 3478 c-3 -8 -4 -77 -3 -153 3 -117 6 -140 18 -140 13 0 15 23
15 149 0 111 -3 150 -12 153 -7 3 -15 -2 -18 -9z"/>
<path d="M3065 1678 c-195 -43 -218 -315 -33 -392 160 -67 332 91 277 255 -34
100 -141 160 -244 137z m139 -59 c155 -106 57 -341 -128 -308 -49 9 -85 36
-113 85 -87 152 97 322 241 223z"/>
<path d="M3538 1676 c-89 -24 -145 -89 -156 -182 -22 -195 239 -302 366 -149
127 155 -17 382 -210 331z m115 -40 c101 -42 138 -175 72 -262 -34 -45 -76
-65 -134 -66 -102 0 -171 71 -171 175 0 115 126 198 233 153z"/>
<path d="M935 1666 c-99 -44 -150 -167 -109 -264 45 -108 179 -164 280 -116
46 22 100 85 113 131 21 74 23 73 -89 73 l-100 0 0 -35 0 -35 50 0 c56 0 62
-10 25 -44 -78 -73 -205 -11 -205 99 0 85 75 146 153 124 19 -5 42 -18 52 -29
13 -14 31 -20 62 -20 23 0 43 3 43 8 0 23 -55 83 -93 101 -50 24 -135 28 -182
7z"/>
<path d="M1389 1657 c-24 -13 -57 -43 -74 -66 -27 -38 -30 -51 -30 -115 0 -63
4 -78 27 -112 43 -61 90 -88 162 -92 50 -3 69 1 106 20 147 79 146 293 -1 368
-54 28 -134 26 -190 -3z m152 -72 c35 -19 69 -70 69 -105 0 -69 -74 -136 -139
-126 -43 7 -99 59 -107 101 -12 68 51 145 119 145 15 0 41 -7 58 -15z"/>
<path d="M1865 1664 c-145 -79 -159 -266 -27 -359 39 -27 52 -30 115 -30 62 0
78 4 110 27 126 86 130 257 8 343 -35 24 -53 30 -109 32 -48 2 -76 -1 -97 -13z
m150 -84 c86 -53 77 -167 -15 -215 -37 -19 -54 -19 -97 2 -91 43 -96 161 -10
213 41 25 81 25 122 0z"/>
<path d="M2220 1475 l0 -205 68 0 c161 0 253 73 254 200 0 70 -17 114 -62 154
-47 42 -92 56 -187 56 l-73 0 0 -205z m202 86 c37 -41 44 -76 27 -125 -16 -47
-67 -86 -110 -86 l-29 0 0 126 0 127 43 -6 c30 -4 50 -14 69 -36z"/>
<path d="M2620 1475 c0 -173 2 -205 15 -205 11 0 15 19 17 93 l3 92 98 3 c76
2 97 6 97 17 0 11 -21 15 -97 17 l-98 3 0 75 0 75 103 3 c82 2 102 6 102 17 0
12 -21 15 -120 15 l-120 0 0 -205z"/>
<path d="M3880 1474 l0 -207 84 5 c100 7 151 31 193 91 24 35 28 50 28 112 0
62 -4 77 -28 114 -40 60 -109 91 -204 91 l-73 0 0 -206z m186 145 c104 -50
122 -184 35 -262 -42 -38 -82 -50 -146 -45 l-40 3 -3 150 c-1 82 0 155 2 162
8 21 103 16 152 -8z"/>
</g>
</svg>
